<svg xmlns="http://www.w3.org/2000/svg" viewBox="0 0 512 512">
  <defs>
    <radialGradient id="bg" cx="50%" cy="50%" r="50%">
      <stop offset="0%" style="stop-color:#4F46E5;stop-opacity:1" />
      <stop offset="100%" style="stop-color:#1E40AF;stop-opacity:1" />
    </radialGradient>
  </defs>
  <circle cx="256" cy="256" r="256" fill="url(#bg)"/>
  <g transform="translate(106, 106)">
    <!-- 手のアイコン -->
    <path d="M150 50C150 22.4 127.6 0 100 0S50 22.4 50 50v100c0 27.6 22.4 50 50 50s50-22.4 50-50V50z" fill="white" opacity="0.9"/>
    <path d="M200 100c0-27.6-22.4-50-50-50s-50 22.4-50 50v50c0 27.6 22.4 50 50 50s50-22.4 50-50v-50z" fill="white" opacity="0.8"/>
    <path d="M250 120c0-27.6-22.4-50-50-50s-50 22.4-50 50v30c0 27.6 22.4 50 50 50s50-22.4 50-50v-30z" fill="white" opacity="0.7"/>
    
    <!-- 星のアイコン -->
    <path d="M180 250l15 30h30l-25 20 10 30-30-20-30 20 10-30-25-20h30z" fill="#F59E0B"/>
  </g>
</svg>
