<svg xmlns="http://www.w3.org/2000/svg" viewBox="0 0 512 512">
  <defs>
    <radialGradient id="bg1" cx="30%" cy="30%" r="70%">
      <stop offset="0%" style="stop-color:#E0F2FE;stop-opacity:1" />
      <stop offset="30%" style="stop-color:#0EA5E9;stop-opacity:1" />
      <stop offset="70%" style="stop-color:#1E40AF;stop-opacity:1" />
      <stop offset="100%" style="stop-color:#1E1B4B;stop-opacity:1" />
    </radialGradient>
    <radialGradient id="bg2" cx="70%" cy="20%" r="50%">
      <stop offset="0%" style="stop-color:#FEF3C7;stop-opacity:0.8" />
      <stop offset="50%" style="stop-color:#F59E0B;stop-opacity:0.9" />
      <stop offset="100%" style="stop-color:#D97706;stop-opacity:1" />
    </radialGradient>
  </defs>
  
  <!-- Background -->
  <rect width="512" height="512" fill="url(#bg1)"/>
  
  <!-- Abstract shapes -->
  <ellipse cx="150" cy="100" rx="80" ry="60" fill="url(#bg2)" opacity="0.7"/>
  <ellipse cx="400" cy="150" rx="60" ry="80" fill="#0EA5E9" opacity="0.6"/>
  <ellipse cx="100" cy="300" rx="70" ry="50" fill="#F59E0B" opacity="0.5"/>
  <ellipse cx="350" cy="350" rx="90" ry="70" fill="#1E40AF" opacity="0.4"/>
  
  <!-- Hand icon -->
  <g transform="translate(150, 200)">
    <path d="M60 20 L40 40 L40 80 L20 100 L20 140 L60 140 L80 120 L100 120 L120 100 L120 80 L100 60 L100 40 L80 20 Z" 
          fill="white" stroke="#1E40AF" stroke-width="4" opacity="0.9"/>
    <circle cx="70" cy="50" r="8" fill="#1E40AF"/>
    <circle cx="90" cy="70" r="6" fill="#1E40AF"/>
    <circle cx="50" cy="90" r="6" fill="#1E40AF"/>
  </g>
  
  <!-- Star -->
  <g transform="translate(280, 280)">
    <path d="M0,-20 L6,-6 L20,-6 L10,2 L15,16 L0,8 L-15,16 L-10,2 L-20,-6 L-6,-6 Z" 
          fill="#F59E0B" stroke="white" stroke-width="2"/>
    <circle cx="0" cy="0" r="3" fill="white"/>
  </g>
</svg>